HIERARCHY
ROOT Hips
{
	OFFSET -3.958830 18.904000 13.208200
	CHANNELS 6 Xposition Yposition Zposition Zrotation Yrotation Xrotation 
	JOINT LHipJoint
	{
		OFFSET 0.000000 0.000000 0.000000
		CHANNELS 3 Zrotation Yrotation Xrotation
		JOINT LeftUpLeg
		{
			OFFSET 1.800000 -1.400000 0.085000
			CHANNELS 3 Zrotation Yrotation Xrotation
			JOINT LeftLeg
			{
				OFFSET 2.215000 -6.000000 0.000000
				CHANNELS 3 Zrotation Yrotation Xrotation
				JOINT LeftFoot
				{
					OFFSET 2.500000 -6.900000 0.000000
					CHANNELS 3 Zrotation Yrotation Xrotation
					JOINT LeftToeBase
					{
						OFFSET 0.200000 -0.500000 1.950000
						CHANNELS 3 Zrotation Yrotation Xrotation
						End Site
						{
							OFFSET 0.000000 0.000000 0.000000
						}
					}
				}
			}
		}
	}
	JOINT RHipJoint
	{
		OFFSET 0.000000 0.000000 0.000000
		CHANNELS 3 Zrotation Yrotation Xrotation
		JOINT RightUpLeg
		{
			OFFSET -1.800000 -1.400000 0.085000
			CHANNELS 3 Zrotation Yrotation Xrotation
			JOINT RightLeg
			{
				OFFSET -2.215000 -6.000000 0.000000
				CHANNELS 3 Zrotation Yrotation Xrotation
				JOINT RightFoot
				{
					OFFSET -2.500000 -6.900000 0.000000
					CHANNELS 3 Zrotation Yrotation Xrotation
					JOINT RightToeBase
					{
						OFFSET -0.200000 -0.500000 1.950000
						CHANNELS 3 Zrotation Yrotation Xrotation
						End Site
						{
							OFFSET 0.000000 0.000000 0.000000
						}
					}
				}
			}
		}
	}
	JOINT LowerBack
	{
		OFFSET 0.000000 0.000000 0.000000
		CHANNELS 3 Zrotation Yrotation Xrotation
		JOINT Spine
		{
			OFFSET -0.087000 1.940000 -0.288900
			CHANNELS 3 Zrotation Yrotation Xrotation
			JOINT Spine1
			{
				OFFSET 0.000000 1.950000 0.060000
				CHANNELS 3 Zrotation Yrotation Xrotation
				JOINT Neck
				{
					OFFSET 0.000000 0.000000 0.000000
					CHANNELS 3 Zrotation Yrotation Xrotation
					JOINT Neck1
					{
						OFFSET 0.000000 1.600000 0.340000
						CHANNELS 3 Zrotation Yrotation Xrotation
						JOINT Head
						{
							OFFSET 0.000000 1.667000 -0.240000
							CHANNELS 3 Zrotation Yrotation Xrotation
							End Site
							{
								OFFSET 0.000000 0.000000 0.000000
							}
						}
					}
				}
				JOINT LeftShoulder
				{
					OFFSET 0.000000 0.000000 0.000000
					CHANNELS 3 Zrotation Yrotation Xrotation
					JOINT LeftArm
					{
						OFFSET 2.700000 1.550000 -0.730000
						CHANNELS 3 Zrotation Yrotation Xrotation
						JOINT LeftForeArm
						{
							OFFSET 5.450000 0.000000 0.000000
							CHANNELS 3 Zrotation Yrotation Xrotation
							JOINT LeftHand
							{
								OFFSET 3.450000 0.000000 0.000000
								CHANNELS 3 Zrotation Yrotation Xrotation
								JOINT LeftHandIndex1
								{
									OFFSET 0.750000 0.000000 0.000000
									CHANNELS 3 Zrotation Yrotation Xrotation
									End Site
									{
										OFFSET 0.000000 0.000000 0.000000
									}
								}
							}
						}
					}
				}
				JOINT RightShoulder
				{
					OFFSET 0.000000 0.000000 0.000000
					CHANNELS 3 Zrotation Yrotation Xrotation
					JOINT RightArm
					{
						OFFSET -2.700000 1.550000 -0.730000
						CHANNELS 3 Zrotation Yrotation Xrotation
						JOINT RightForeArm
						{
							OFFSET -5.450000 0.000000 0.000000
							CHANNELS 3 Zrotation Yrotation Xrotation
							JOINT RightHand
							{
								OFFSET -3.450000 0.000000 0.000000
								CHANNELS 3 Zrotation Yrotation Xrotation
								JOINT RightHandIndex1
								{
									OFFSET -0.750000 0.000000 0.000000
									CHANNELS 3 Zrotation Yrotation Xrotation
									End Site
									{
										OFFSET 0.000000 0.000000 0.000000
									}
								}
							}
						}
					}
				}
			}
		}
	}
}
MOTION
Frames: 6
Frame Time: 0.016667
17.981770 16.425580 -17.691080 3.509084 -5.487090 3.806322 -15.461684 12.878511 2.952097 -2.313419 1.780580 -0.416362 -12.301448 6.541965 6.030817 0.357472 4.473455 3.087458 0.076880 0.057190 0.044900 18.206391 -9.521962 3.513599 -3.591094 2.659390 -32.827754 6.332195 -1.178043 -4.189807 0.197991 -1.562634 3.712588 0.052520 0.044480 0.071990 -3.078749 -2.373682 -7.519135 2.331983 -5.924288 5.672687 -2.621568 -5.926934 0.627646 1.953823 1.483350 -5.473494 1.196848 -7.312864 25.877053 0.154720 -6.211470 -6.267010 -24.397170 -1.069524 0.961727 -55.108668 -3.088333 -5.199834 -16.561531 -19.687404 1.293833 -3.738461 3.168018 -0.017150 0.030330 -0.025380 0.028470 20.985513 -1.101112 1.942082 58.278456 -6.162933 -10.579639 11.256449 16.357877 -0.361601 2.659236 -1.279204 0.012730 0.004520 -0.018030 0.023630 
17.970660 16.419160 -17.665740 3.528145 -5.972568 3.791746 -15.450484 12.868861 2.958668 -2.234784 1.791052 -0.304894 -12.500766 6.604170 6.085598 0.361544 4.503690 3.078653 0.074080 0.053470 0.047430 18.215555 -9.550419 3.502641 -3.330198 2.721300 -32.578675 6.373555 -1.206169 -3.975842 0.198464 -1.553198 3.719358 0.050510 0.043130 0.068800 -3.104829 -2.317561 -7.515365 2.490325 -5.805995 5.670480 -2.907038 -5.773667 0.672635 2.020847 1.424092 -5.480465 1.107183 -7.341228 25.969323 -0.001840 -6.182530 -6.359020 -24.437260 -1.036949 0.942184 -54.930514 -2.993186 -5.229538 -16.400275 -19.572612 1.259946 -3.737576 3.154855 -0.011540 0.028680 -0.023130 0.026510 20.852019 -1.062514 2.008818 58.615670 -6.149888 -10.729444 11.609471 16.798698 -0.318653 2.654314 -1.275595 0.008570 0.009840 -0.017200 0.020750 
17.950510 16.409000 -17.624240 3.663353 -6.473883 3.836043 -15.457899 12.869132 2.959989 -2.489510 1.878767 -0.081632 -12.188553 6.574767 6.186352 0.357634 4.485706 3.080701 0.080130 0.061270 0.049620 18.209564 -9.564624 3.496837 -3.035499 2.774808 -32.114066 6.543353 -1.207993 -4.054390 0.190020 -1.559330 3.719083 0.053700 0.037770 0.067220 -3.081981 -2.296754 -7.504440 2.126654 -5.635048 5.607017 -2.682286 -5.634148 0.719193 1.980166 1.478314 -5.500263 1.184018 -7.189281 26.165800 0.363920 -6.133900 -6.721040 -24.376620 -0.983779 1.017630 -55.209158 -2.752810 -5.303477 -16.278268 -19.389873 1.197653 -3.732108 3.147434 -0.002310 0.020980 -0.016370 0.026510 20.915646 -1.049832 1.943778 58.380638 -5.843499 -10.605259 12.204872 16.985824 -0.245852 2.651467 -1.274891 0.009350 0.012880 -0.017790 0.019170 
17.938670 16.397520 -17.571250 3.507624 -6.490205 4.001776 -15.452291 12.854946 2.963746 -2.459564 1.975718 0.418130 -11.862494 6.439755 5.595674 0.360362 4.476300 3.087358 0.071620 0.048740 0.050990 18.222953 -9.576722 3.473899 -2.395421 2.868899 -31.424595 6.464999 -1.190452 -4.223814 0.190843 -1.571025 3.718152 0.047620 0.040830 0.072000 -3.110821 -2.265767 -7.479111 2.552847 -5.587659 5.214895 -2.806863 -5.586837 0.878789 2.079814 1.423532 -5.550154 1.140428 -6.859410 26.087133 -0.025870 -5.650470 -6.367000 -24.333397 -0.933514 1.076276 -55.514034 -2.571739 -5.382760 -16.036512 -19.576342 1.173526 -3.742445 3.148374 -0.007190 0.029370 -0.021120 0.021000 20.640704 -1.092610 2.018706 58.471060 -5.862514 -10.632180 12.543550 17.180907 -0.212104 2.650062 -1.281898 0.007450 0.006090 -0.013020 0.015080 
17.913820 16.388470 -17.509990 3.348875 -6.578225 4.179434 -15.445687 12.847900 2.964306 -2.224843 2.008642 0.816224 -11.645178 6.366620 5.258666 0.367794 4.470352 3.087882 0.076400 0.053830 0.059640 18.228245 -9.590861 3.474292 -2.178606 2.949649 -30.975793 7.229539 -1.261549 -3.985397 0.179907 -1.596176 3.709836 0.046090 0.030360 0.073260 -3.127167 -2.225563 -7.476474 2.755040 -5.580236 5.110596 -2.857696 -5.587753 0.677805 2.154009 1.465401 -5.507910 1.256679 -6.641724 26.077588 -0.004440 -5.345420 -6.606230 -24.758459 -0.772570 1.139629 -55.579700 -1.879898 -5.745047 -15.457325 -19.908822 1.101337 -3.732367 3.144913 -0.001940 0.023420 -0.012830 0.018530 20.916122 -1.264784 1.904126 58.334328 -5.853029 -10.555055 12.274900 16.957678 -0.228134 2.656029 -1.275990 0.012030 0.000810 -0.017660 0.011500 
17.876010 16.385610 -17.445610 3.319020 -6.667640 4.159735 -15.446174 12.844968 2.936214 -1.642019 1.923310 0.918691 -11.911478 6.547088 5.802982 0.389495 4.530917 3.066659 0.074430 0.055200 0.054100 18.222500 -9.608291 3.484661 -2.082018 2.918325 -29.925667 7.874727 -1.254061 -4.574981 0.154395 -1.673411 3.690885 0.039880 0.026660 0.069710 -3.114493 -2.184713 -7.477076 2.433565 -5.264428 4.986437 -2.680432 -5.297175 0.552786 2.123221 1.650459 -5.572744 1.503005 -6.705639 26.457997 0.529500 -5.536510 -6.725270 -24.837262 -0.818497 1.161487 -55.380147 -1.870003 -5.644570 -15.321525 -19.561168 1.073281 -3.722287 3.136566 0.005170 0.013660 -0.004380 0.021310 21.086813 -1.263394 2.006431 58.403013 -6.202569 -10.612853 12.436271 16.843133 -0.209685 2.660606 -1.265187 0.015530 0.002790 -0.020130 0.016040 
